<svg width="101" height="180" viewBox="0 0 101 180" fill="none" xmlns="http://www.w3.org/2000/svg">
<g id="Crown">
<g id="Group">
<path id="Vector" d="M15.4881 165.26C-4.00158 145.77 -4.00158 114.061 15.4881 94.5717C34.9779 75.082 66.6866 75.082 86.1763 94.5717C105.666 114.061 105.666 145.77 86.1763 165.26C66.6866 184.75 34.9779 184.75 15.4881 165.26ZM83.8207 96.9273C65.6296 78.7363 36.0348 78.7363 17.8485 96.9273C-0.342528 115.118 -0.342528 144.713 17.8485 162.9C36.0396 181.091 65.6344 181.091 83.8207 162.9C102.012 144.708 102.012 115.114 83.8207 96.9273Z" fill="white"/>
<g id="Group_2">
<path id="Vector_2" d="M84.3638 119.313C84.1884 119.138 84.0462 118.915 83.9657 118.669C82.2357 113.55 79.4108 109.014 75.5716 105.175C71.7372 101.34 67.1965 98.5153 62.0776 96.7806C61.3998 96.5483 60.9448 95.9179 60.9448 95.2023V83.0544C60.9448 82.5425 61.1818 82.059 61.5847 81.7414C61.9923 81.4239 62.5184 81.3149 63.0113 81.4381C71.7609 83.6279 79.771 88.1685 86.1696 94.5719C92.5682 100.975 97.1089 108.981 99.2987 117.73C99.4219 118.228 99.3081 118.754 98.9953 119.162C98.6777 119.569 98.1943 119.801 97.6824 119.801H85.5345C85.0795 119.801 84.6624 119.617 84.3543 119.308L84.3638 119.313ZM77.9272 102.819C81.8422 106.734 84.7951 111.322 86.7194 116.469H95.5069C93.2982 109.113 89.2836 102.392 83.8187 96.9275C78.3538 91.4626 71.6329 87.4481 64.2816 85.2441V94.0315C69.4289 95.9511 74.017 98.904 77.932 102.824L77.9272 102.819Z" fill="white"/>
<path id="Vector_3" d="M15.4867 165.26C9.0881 158.861 4.5427 150.851 2.35295 142.102C2.22971 141.604 2.34347 141.078 2.6563 140.675C2.97386 140.267 3.45729 140.035 3.96918 140.035H16.1171C16.8328 140.035 17.4679 140.49 17.6954 141.168C19.4254 146.287 22.2503 150.823 26.0894 154.662C29.9239 158.496 34.4646 161.321 39.5835 163.056C40.2612 163.283 40.7162 163.919 40.7162 164.634V176.782C40.7162 177.294 40.4792 177.778 40.0764 178.095C39.6687 178.413 39.1426 178.522 38.645 178.398C29.8954 176.209 21.8901 171.668 15.4867 165.269V165.26ZM6.15421 143.362C8.36292 150.718 12.3774 157.439 17.8423 162.904C23.3072 168.369 30.0282 172.384 37.3842 174.592V165.805C32.2369 163.885 27.6488 160.933 23.7338 157.018C19.8188 153.103 16.866 148.515 14.9416 143.367H6.15421V143.362Z" fill="white"/>
<path id="Vector_4" d="M61.433 177.953C61.1202 177.64 60.9448 177.218 60.9448 176.773V164.625C60.9448 163.909 61.3998 163.274 62.0776 163.047C67.1965 161.317 71.7324 158.492 75.5716 154.653C79.4108 150.813 82.2309 146.277 83.9656 141.159C84.1931 140.481 84.8283 140.026 85.544 140.026H97.6919C98.2038 140.026 98.6872 140.263 99.0048 140.666C99.3223 141.068 99.4314 141.599 99.3081 142.092C97.1136 150.842 92.573 158.847 86.1743 165.251C79.7757 171.654 71.7656 176.195 63.0161 178.384C62.5184 178.508 61.9923 178.394 61.5894 178.081C61.5373 178.034 61.4852 177.991 61.4378 177.944L61.433 177.953ZM64.2769 165.8V174.588C71.6329 172.379 78.3538 168.365 83.8187 162.9C89.2836 157.435 93.2934 150.714 95.5069 143.358H86.7194C84.7998 148.505 81.847 153.088 77.9272 157.008C74.0122 160.923 69.4242 163.881 64.2769 165.8Z" fill="white"/>
<path id="Vector_5" d="M2.78974 119.313C2.74234 119.266 2.69496 119.214 2.65704 119.162C2.33948 118.759 2.23046 118.228 2.35369 117.73C4.54344 108.981 9.0841 100.971 15.4875 94.5719C21.8908 88.1733 29.8962 83.6279 38.6457 81.4382C39.1434 81.3149 39.6695 81.4287 40.0724 81.7415C40.4752 82.0591 40.7123 82.5425 40.7123 83.0544V95.2023C40.7123 95.918 40.2572 96.5531 39.5795 96.7806C34.4606 98.5106 29.9246 101.335 26.0854 105.175C22.251 109.009 19.4262 113.55 17.6914 118.669C17.4639 119.346 16.8288 119.801 16.1131 119.801H3.96521C3.51967 119.801 3.09307 119.626 2.78499 119.318L2.78974 119.313ZM37.3802 85.2441C30.0242 87.4529 23.3032 91.4674 17.8383 96.9323C12.3734 102.397 8.36366 109.118 6.15021 116.474H14.9376C16.8572 111.327 19.8101 106.744 23.7298 102.824C27.6448 98.9088 32.2329 95.9559 37.3802 94.0316V85.2441Z" fill="white"/>
</g>
<path id="Vector_6" d="M77.9314 102.819C62.9918 87.8792 38.6771 87.8745 23.7375 102.819C8.79315 117.763 8.79789 142.073 23.7375 157.013C38.6771 171.952 62.9871 171.957 77.9314 157.013C92.8757 142.068 92.871 117.758 77.9314 102.819Z" fill="white"/>
<g id="Group_3">
<path id="Vector_7" d="M64.6503 143.593L37.1226 143.776C35.963 143.784 35.0292 144.73 35.0369 145.889L35.0434 146.871C35.0511 148.03 35.9974 148.964 37.157 148.956L64.6846 148.774C65.8442 148.766 66.7781 147.82 66.7704 146.66L66.7639 145.679C66.7562 144.519 65.8099 143.586 64.6503 143.593Z" fill="#110A1D"/>
<path id="Vector_8" d="M40.8732 126.977C40.5746 126.977 40.2713 126.911 39.9964 126.778L37.8492 125.74C36.9155 125.285 36.4889 124.181 36.8776 123.219L37.8635 120.763C38.1668 120.014 38.8825 119.526 39.6883 119.522C40.0343 119.522 40.3755 119.607 40.6788 119.782L43.2383 121.242C43.717 121.512 44.063 121.981 44.1862 122.522C44.3095 123.062 44.2005 123.631 43.8876 124.086L42.4847 126.119C42.1197 126.65 41.513 126.972 40.8684 126.972L40.8732 126.977Z" fill="#110A1D"/>
<path id="Vector_9" d="M60.6919 126.844C60.0473 126.844 59.4359 126.536 59.0663 126.01L57.6775 124.053C57.3552 123.602 57.2415 123.034 57.3552 122.493C57.469 121.953 57.8102 121.479 58.2889 121.199L60.9289 119.65C61.2275 119.474 61.5688 119.379 61.9148 119.375C62.7206 119.37 63.4458 119.849 63.7586 120.593L64.7539 122.977C65.152 123.934 64.7397 125.048 63.8155 125.513L61.5688 126.636C61.2987 126.769 60.9953 126.844 60.6967 126.844H60.6919Z" fill="#110A1D"/>
<path id="Vector_10" d="M38.7106 141.936C37.502 141.945 36.4166 141.187 36.0043 140.049L31.4115 127.408C31.1176 127.551 30.8048 127.66 30.4872 127.74C30.1128 127.835 29.7336 127.882 29.3497 127.882C29.1269 127.882 28.9089 127.873 28.6956 127.844C26.302 127.541 24.4868 125.489 24.4725 123.072C24.4536 120.398 26.6148 118.209 29.288 118.19C31.9612 118.171 34.151 120.332 34.1652 123.005C34.1652 123.621 34.0609 124.214 33.8429 124.768C33.7244 125.072 33.5775 125.361 33.4069 125.636L42.1422 129.864L48.8252 120.18C48.5456 120.062 48.2754 119.915 48.0194 119.74C47.536 119.412 47.1141 119.005 46.7729 118.526C46.1946 117.711 45.8818 116.749 45.8771 115.753C45.8581 113.08 48.0194 110.89 50.6926 110.872C50.8111 110.872 50.9344 110.872 51.0529 110.881C53.4464 111.042 55.3802 112.962 55.5556 115.355C55.6362 116.488 55.3376 117.573 54.693 118.498C54.3517 118.981 53.9346 119.394 53.4559 119.721C53.2047 119.896 52.9345 120.043 52.6549 120.161L59.4564 129.745L68.0495 125.446C67.8883 125.138 67.7604 124.816 67.6656 124.479C67.5518 124.072 67.4902 123.645 67.4902 123.214C67.4902 123.019 67.4997 122.825 67.5186 122.636C67.7935 120.199 69.8506 118.351 72.301 118.337C74.9742 118.318 77.164 120.479 77.1782 123.152C77.1971 125.702 75.2159 127.844 72.6707 128.02L72.3674 128.029C71.8744 128.029 71.391 127.963 70.9218 127.821C70.6184 127.726 70.3245 127.607 70.0496 127.456L65.7365 139.85C65.3431 140.992 64.2624 141.76 63.0538 141.77L38.7106 141.931V141.936Z" fill="#110A1D"/>
</g>
<path id="Vector_11" d="M100.09 13.2201C100.09 14.2089 99.2883 15 98.3099 15C97.3315 15 96.53 14.1985 96.53 13.2201C96.53 -12.1353 75.9001 -32.7652 50.5447 -32.7653C25.1893 -32.7653 4.55934 -12.1353 4.55934 13.2201C4.55934 14.2089 3.75785 15 2.77944 15C1.80103 15 0.999603 14.1985 0.999603 13.2201C0.999606 -14.1026 23.2324 -36.3354 50.5551 -36.3354C77.8778 -36.3354 100.111 -14.1026 100.111 13.2201L100.09 13.2201Z" fill="white"/>
</g>
<g id="Group_4">
<path id="Vector_12" d="M100.411 9.04012V128.635C100.411 129.624 99.6098 130.415 98.6314 130.415C97.653 130.415 96.8516 129.614 96.8516 128.635V9.04012C96.8516 8.0513 97.653 7.26025 98.6314 7.26025C99.6098 7.26025 100.411 8.06171 100.411 9.04012Z" fill="white"/>
</g>
<g id="Group_5">
<path id="Vector_13" d="M4.86833 8.77987V128.375C4.86833 129.364 4.06691 130.155 3.08849 130.155C2.11008 130.155 1.30859 129.354 1.30859 128.375V8.77987C1.30859 7.79105 2.11008 7 3.08849 7C4.06691 7 4.86833 7.80146 4.86833 8.77987Z" fill="white"/>
</g>
</g>
</svg>
